<?xml version="1.0" encoding="UTF-8"?>
<svg id="Layer_1" xmlns="http://www.w3.org/2000/svg" version="1.1" viewBox="0 0 67.17 112.39">
  <!-- Generator: Adobe Illustrator 29.5.1, SVG Export Plug-In . SVG Version: 2.1.0 Build 141)  -->
  <defs>
    <style>
      .st0 {
        fill: #231f20;
      }

      .st1 {
        fill: #fbb040;
      }

      .st2 {
        fill: #bab7a8;
      }
    </style>
  </defs>
  <ellipse class="st0" cx="33.55" cy="53.5" rx="25.56" ry="52.03"/>
  <path class="st2" d="M43.3,63.25s5.25-.29,6.82-4.28c0,0-1.47.11-1.95-.53s-.08-2.2,1.15-3.39,2.72-1.69,2.86-3.88c0,0-1.2.51-1.46-.06s.36-3.31,1.64-4.21.94-7.68-.11-9.53c0,0-5.09,4.47-5.28,7.73,0,0-1.25,1.58-2.23-.54,0,0-2,2.17-1.63,6.69,0,0-.84,1.2-1.92.15,0,0-2.69,2.48.19,11.78,0,0,2.59-8.4,5.08-10.04,0,0-3.51,7.46-3.17,10.12Z"/>
  <path class="st2" d="M39.66,94.04s3.5-.19,4.54-2.85c0,0-.98.07-1.3-.35s-.05-1.47.77-2.26,1.81-1.13,1.91-2.58c0,0-.8.34-.97-.04s.24-2.2,1.09-2.81.62-5.11-.08-6.34c0,0-3.39,2.97-3.51,5.14,0,0-.83,1.05-1.49-.36,0,0-1.33,1.45-1.08,4.46,0,0-.56.8-1.28.1,0,0-1.79,1.65.13,7.84,0,0,1.72-5.59,3.39-6.69,0,0-2.34,4.97-2.11,6.74Z"/>
  <path class="st2" d="M30.62,78.61s4.19-8.86,1.97-16.76c0,0-1.08,2.15-1.97.78s-1.68-4.37-1.08-6.28c0,0-3.71,1.5-3.23,5.81,0,0-.96,1.92-2.33.18s4.43-16.28-9.28-20.05c0,0,2.75,4.55,1.26,7.12s.12,5.39.54,5.33,1.02,3.53-1.32,2.45c0,0-1.97,5.09,7.54,15.62,0,0-.96,1.56-4.25.06,0,0,1.38,5.81,10.53,6.34,0,0-.18-9.22-5.51-13.59,0,0,5.51,1.56,7.12,12.99Z"/>
  <path class="st2" d="M36.26,98.4s-8.8-17.9,7.92-28.14c0,0-2.52-.02-5.28.77,0,0,1.76-9.77-2.64-14.62-4.14-4.56-3.34-14.92-3.34-14.92,0,0-.8-.06-1.11.49-.75,1.34-1.13,5.46.15,10.24,0,0-4.67-1.56-4.67-2.97,0,0,.28,3.38,5.29,6.14,5.01,2.76,6.92,12.1.34,23.98-5.35,9.64,1.74,22.35,1.74,22.35l1.6-3.32Z"/>
  <path class="st2" d="M24.5,27.61s-1.51-.93-2.65-4.94c-1.14-4.01-5.53-1.4-5.72.42,0,0,.28,1.35-.55,1.82-.82.47-1.63,6.39,5.44,12.58,0,0-9.92-11.18,3.48-9.88Z"/>
  <path class="st2" d="M32,39.49s-.69-3.26,0-5.13.23-5.79-5.26-5.34c0,0-2.33.12-3.66-.25s-4.68-.19-3.3,4.37c1.37,4.57,7.19,7.27,12.22,6.34Z"/>
  <path class="st2" d="M33.14,39.21s.56-.97.29-4c-.27-3.03-.46-5.92,5.35-5.64,0,0,2.24.14,3.02-.33s5.58-1.16,3.57,4.33c-2.01,5.5-8.15,6.05-12.22,5.63Z"/>
  <path class="st2" d="M44.49,36.98s7.5-2.99,7.09-7.95c0,0-.64-3-2.56-3.47,0,0,.55-3.91-4.53-4.1,0,0-1.65-.42-2.79,3.08-1.14,3.49-2.43,3.72-2.43,3.72,0,0,13.27-3.49,5.22,8.72Z"/>
  <path class="st2" d="M39,27.42s-.11-2.21-2.41-1.43c0,0-.38-2.17-2.48-1.1,0,0-1.55-1.68-2.91.16,0,0-1.78-1.12-2.45.76,0,0-2.47-.92-2.55,1.9,0,0-4.76-5.19-2.13-9.47,0,0,1.46-2.05,5.37-.65,0,0,2.16.75,3.75-.06,1.59-.81,5.15-1.4,6.25.81,1.1,2.21,1.28,5-.43,9.1Z"/>
  <path class="st1" d="M29.87,28.93s-.88-2.29-1.85-1.93c-.97.36.81,2.12,1.85,1.93Z"/>
  <path class="st1" d="M31.89,30.06s.42-3.8-1.7-3.81c0,0-1.25.14.24,1.69,1.49,1.55,1.46,2.12,1.46,2.12Z"/>
  <path class="st1" d="M32.8,28.66s-.4-.92.54-2.04c.55-.66-.24-2.25-1.25-1.07-.74.87.71,3.11.71,3.11Z"/>
  <path class="st1" d="M33.17,30.61s.59-2.54,1.59-2.88c.99-.34,2.04-1.35,1.04-2-1.6-1.05-2.57,2.39-2.63,4.88Z"/>
  <path class="st1" d="M34.6,29.55s3.67-.65,3.18-2.06c-.49-1.41-2.46.26-3.18,2.06Z"/>
  <circle class="st2" cx="33.68" cy="9.06" r="3.39"/>
  <circle class="st2" cx="26.64" cy="83.28" r="2.15"/>
  <circle class="st2" cx="48.09" cy="69.76" r="1.84"/>
</svg>