<?xml version="1.0" encoding="UTF-8"?>
<svg id="Layer_1" xmlns="http://www.w3.org/2000/svg" version="1.1" viewBox="0 0 144 144">
  <!-- Generator: Adobe Illustrator 29.3.1, SVG Export Plug-In . SVG Version: 2.1.0 Build 151)  -->
  <defs>
    <style>
      .st0 {
        fill: #598ba9;
      }

      .st1 {
        fill: #2b2724;
      }

      .st2 {
        fill: #231f20;
      }

      .st3 {
        fill: #b6ac75;
      }

      .st4 {
        fill: #5b572d;
      }

      .st5 {
        fill: #b2c5d5;
      }
    </style>
  </defs>
  <g>
    <rect class="st1" x="30.94" y="17.78" width="80.11" height="79.88" transform="translate(13.28 128.71) rotate(-90)"/>
    <rect class="st3" x="68.41" y="55.54" width="4.96" height="4.96" transform="translate(12.87 128.91) rotate(-90)"/>
    <path class="st3" d="M73.37,55.54v-18.25s2.51-2.77,2.72-2.77h5.6s-4.48,3.79-4.48,3.79v13.29s13.45,0,13.45,0l3.58-3.58v4.7s-2.4,2.83-2.4,2.83h-18.46Z"/>
    <path class="st3" d="M73.37,60.5v18.25s2.51,2.77,2.72,2.77h5.6s-4.48-3.79-4.48-3.79v-13.29h13.45s3.58,3.58,3.58,3.58v-4.7s-2.4-2.83-2.4-2.83h-18.46Z"/>
    <path class="st3" d="M68.41,60.5v18.25s-2.51,2.77-2.72,2.77-5.6,0-5.6,0l4.48-3.79v-13.29s-13.45,0-13.45,0l-3.58,3.58v-4.7s2.4-2.83,2.4-2.83h18.46Z"/>
    <path class="st3" d="M68.41,55.54v-18.25s-2.51-2.77-2.72-2.77h-5.6s4.48,3.79,4.48,3.79v13.29h-13.45l-3.58-3.58v4.7l2.4,2.83h18.46Z"/>
    <polygon class="st4" points="83.78 45.15 82.28 45.03 73.86 53.79 73.37 55.54 75.25 55.28 83.56 46.66 83.78 45.15"/>
    <polygon class="st4" points="83.78 70.9 82.28 71.02 73.86 62.26 73.37 60.5 75.25 60.76 83.56 69.39 83.78 70.9"/>
    <polygon class="st4" points="57.99 45.15 59.5 45.03 67.92 53.79 68.41 55.54 66.53 55.28 58.22 46.66 57.99 45.15"/>
    <polygon class="st4" points="57.99 70.9 59.5 71.02 67.92 62.26 68.41 60.5 66.53 60.76 58.22 69.39 57.99 70.9"/>
    <rect class="st5" x="94.5" y="29.23" width="5.34" height="5.28"/>
    <path class="st0" d="M94.5,40.6l3.04,1.39s2.13,2.83,2.08,3.04.21,5.26.21,5.26l4.43-4.84v-7.56s-4.43-3.36-4.43-3.36h-5.34s0,6.08,0,6.08Z"/>
    <path class="st0" d="M89.01,34.09l-1.97-2.61s-2.83-2.13-3.04-2.08-5.26-.21-5.26-.21l4.84-4.43h7.56s3.36,4.43,3.36,4.43v5.34s-5.5-.43-5.5-.43Z"/>
    <rect class="st5" x="94.5" y="81.9" width="5.34" height="5.28"/>
    <polygon class="st5" points="83.78 45.15 84.04 38.41 89.01 34.09 94.5 34.52 94.5 40.6 90.55 44.66 83.78 45.15"/>
    <path class="st0" d="M94.5,75.82l3.04-1.39s2.13-2.83,2.08-3.04.21-5.26.21-5.26l4.43,4.84v7.56s-4.43,3.36-4.43,3.36h-5.34v-6.08Z"/>
    <path class="st0" d="M89.01,82.33l-1.97,2.61s-2.83,2.13-3.04,2.08-5.26.21-5.26.21l4.84,4.43h7.56s3.36-4.43,3.36-4.43v-5.34s-5.5.43-5.5.43Z"/>
    <rect class="st5" x="41.96" y="81.47" width="5.34" height="5.28"/>
    <path class="st0" d="M47.29,75.39l-3.04-1.39s-2.13-2.83-2.08-3.04-.21-5.26-.21-5.26l-4.43,4.84v7.56s4.43,3.36,4.43,3.36h5.34s0-6.08,0-6.08Z"/>
    <path class="st0" d="M52.79,81.9l1.79,2.61s2.83,2.13,3.04,2.08,5.26.21,5.26.21l-4.84,4.43h-7.56s-3.36-4.43-3.36-4.43v-5.34s5.68.43,5.68.43Z"/>
    <polygon class="st5" points="58.01 70.84 57.75 77.58 52.79 81.9 47.29 81.47 47.29 75.39 51.24 71.34 58.01 70.84"/>
    <rect class="st5" x="41.94" y="29.21" width="5.34" height="5.28"/>
    <polygon class="st5" points="83.78 71.27 84.04 78.01 89.01 82.33 94.5 81.9 94.5 75.82 90.55 71.76 83.78 71.27"/>
    <path class="st0" d="M47.28,40.57l-3.04,1.39s-2.13,2.83-2.08,3.04-.21,5.26-.21,5.26l-4.43-4.84v-7.56l4.43-3.36h5.34v6.08Z"/>
    <path class="st0" d="M52.75,34.09l2-2.64s2.83-2.13,3.04-2.08,5.26-.21,5.26-.21l-4.84-4.43h-7.56s-3.36,4.43-3.36,4.43v5.34s5.47-.4,5.47-.4Z"/>
    <polygon class="st5" points="57.97 45.15 57.71 38.41 52.75 34.09 47.25 34.52 47.25 40.6 51.2 44.66 57.97 45.15"/>
  </g>
  <g>
    <path class="st2" d="M21.85,101.79v3.23c0,.25.11.36.36.36h1.63c.22,0,.66-.23.66-.68h.09v1.49h-.09c0-.47-.45-.7-.66-.7h-1.63c-.27,0-.36.11-.36.36v4.75c0,.11.09.2.2.2h.38v.11h-1.61v-.11h.27c.09,0,.2-.09.2-.2v-8.8c0-.11-.09-.2-.2-.2h-1.09c-1.77,0-2.71,1.27-2.72,2.69,0,1.24.72,2.63,2.29,2.63.59,0,.9-.29.97-.41l.11.04c-.07.2-.43.48-1.13.48-1.83,0-2.83-1.33-2.83-2.69,0-1.47,1.09-2.85,3.32-2.85h4.19c.14,0,.65.04.5-.31h.09l.63,1.4h-.09s-.48-.99-1.2-.99h-2.06c-.11,0-.2.09-.2.2Z"/>
    <path class="st2" d="M28.95,103.03v7.56c0,.11.09.2.2.2h.14v.11h-1.25v-.11h.14c.13,0,.2-.09.2-.2v-1.92c0-.13-.09-.22-.21-.22h-2.62c-.11,0-.2.07-.22.18l-.3,1.51c-.09.43.2.65.54.65v.11h-1.34v-.11c.39,0,.56-.22.65-.56.68-2.71.97-7.51,3.55-7.51h.88v.11h-.14c-.11,0-.2.09-.2.2ZM28.16,108.35c.13,0,.21-.11.21-.23v-5.16c0-.07.05-.13-.02-.13-.63,0-1.18.39-1.58,1-.65.99-1.02,2.58-1.34,4.25-.04.12.05.27.2.27h2.53Z"/>
    <path class="st2" d="M31.11,110.79h.14v.11h-1.25v-.11h.14c.09,0,.2-.09.2-.2v-7.56c0-.11-.09-.2-.2-.2h-.14v-.11h2.08c1.67,0,2.46.81,2.46,1.83,0,1.09-.77,1.92-2.22,2.01v.05c1.49.79,1.72,4.12,2.62,4.18h.14v.11h-.14c-.84-.05-1.43-1.11-1.85-2.26-.38-1-.54-2.1-1.45-2.08h-.29v-.11h.73c1.09,0,1.81-.84,1.81-1.9,0-.97-.73-1.72-1.81-1.72h-.97c-.11,0-.2.09-.2.2v7.56c0,.11.09.2.2.2Z"/>
    <path class="st2" d="M36.47,110.79v.11h-1.4v-.11c.39,0,.59-.32.59-.81v-6.95c0-.11-.11-.2-.2-.2h-.14v-.11h.99l1.97,3.21,1.95-3.21h.91v.11h-.14c-.11,0-.2.09-.2.2v7.56c0,.11.09.2.2.2h.14v.11h-1.25v-.11h.14c.09,0,.2-.09.2-.2v-7.65l-2.17,3.57h-.13l-2.15-3.6v7.08c0,.48.23.81.68.81Z"/>
    <path class="st2" d="M42.4,106.85h4.95v.12h-4.95v-.12Z"/>
    <path class="st2" d="M53.08,102.49h.09l.61,1.36h-.09s-.47-.95-1.18-.95h-.93c-.11,0-.2.09-.2.2v7.49c0,.11.09.2.2.2h.16v.11h-1.27v-.11h.14c.09,0,.2-.09.2-.2v-7.53c0-.11-.07-.16-.2-.16h-.93c-.72,0-1.18.95-1.18.95h-.09l.61-1.36h.09c-.09.3.25.3.5.3h2.98c.23,0,.59-.02.5-.3Z"/>
    <path class="st2" d="M57.81,102.58c2.47,0,4.45,1.9,4.45,4.27s-1.97,4.25-4.45,4.25-4.43-1.88-4.43-4.25,1.95-4.27,4.43-4.27ZM57.81,110.99c2.08,0,3.8-1.85,3.8-4.14s-1.72-4.16-3.8-4.16-3.78,1.86-3.78,4.16,1.7,4.14,3.78,4.14Z"/>
    <path class="st2" d="M63.24,106.85h4.95v.12h-4.95v-.12Z"/>
    <path class="st2" d="M74.53,110.79h.23v.11h-1.43v-.11h.23c.09,0,.2-.09.2-.2v-8.8c0-.11-.09-.2-.2-.2h-1.24c-1.77,0-2.71,1.27-2.72,2.69,0,1.24.72,2.63,2.29,2.63.59,0,1.11-.36,1-.68h.11c.14.38-.47.79-1.17.79-1.83,0-2.83-1.33-2.83-2.69,0-1.47,1.09-2.85,3.32-2.85h3.76c.23,0,.57-.05.5-.31h.07l.65,1.43h-.07s-.57-1.02-1.33-1.02h-1.38c-.11,0-.2.09-.2.2v8.8c0,.11.09.2.2.2Z"/>
    <path class="st2" d="M81.21,103.03v7.56c0,.11.09.2.2.2h.14v.11h-1.25v-.11h.14c.13,0,.2-.09.2-.2v-1.92c0-.13-.09-.22-.21-.22h-2.62c-.11,0-.2.07-.22.18l-.31,1.51c-.09.43.2.65.54.65v.11h-1.34v-.11c.39,0,.56-.22.65-.56.68-2.71.97-7.51,3.55-7.51h.88v.11h-.14c-.11,0-.2.09-.2.2ZM80.42,108.35c.12,0,.21-.11.21-.23v-5.16c0-.07.05-.13-.02-.13-.63,0-1.18.39-1.58,1-.65.99-1.02,2.58-1.35,4.25-.03.12.05.27.2.27h2.53Z"/>
    <path class="st2" d="M87.11,108.44c0,1.24-.88,2.46-2.78,2.46h-2.06v-.11h.14c.09,0,.2-.09.2-.2v-7.56c0-.11-.09-.2-.2-.2h-.14v-.11h1.95c1.79,0,2.51.91,2.51,1.79,0,.75-.5,1.47-1.47,1.74-.04.02-.04.07,0,.07,1.18.25,1.85,1.17,1.85,2.12ZM86.46,108.57c0-1.09-.54-2.19-1.86-2.19h-.25v-.11h.05c1.11,0,1.69-.86,1.69-1.74s-.57-1.7-1.86-1.7h-.84c-.11,0-.2.09-.2.2v7.56c0,.11.09.2.2.2h.95c1.38,0,2.13-1.08,2.13-2.22Z"/>
    <path class="st2" d="M89.13,102.83h-.38c-.11,0-.2.09-.2.2v7.56c0,.11.09.2.2.2h1.45c.72,0,1.22-1.02,1.22-1.02h.13l-.68,1.43h-.09c.09-.32-.16-.31-.41-.31h-2.72v-.11h.14c.09,0,.2-.09.2-.2v-7.56c0-.11-.09-.2-.2-.2h-.14v-.11h1.49v.11Z"/>
    <path class="st2" d="M92.86,103.03v2.31c0,.11.09.2.2.2h1.52c.22,0,.66-.23.66-.68h.09v1.49h-.09c0-.47-.45-.7-.66-.7h-1.52c-.11,0-.2.09-.2.2v4.75c0,.11.09.2.2.2h2.01c.72,0,1.22-1.02,1.22-1.02h.09l-.65,1.43h-.09c.07-.27-.25-.31-.5-.31h-3.19v-.11h.14c.09,0,.2-.09.2-.2v-7.56c0-.11-.11-.2-.2-.2h-.14v-.11h3.03c.14,0,.65.04.5-.31h.09l.63,1.4h-.09s-.48-.99-1.2-.99h-1.85c-.11,0-.2.09-.2.2Z"/>
    <path class="st2" d="M104.08,101.79v3.23c0,.25.11.36.36.36h1.63c.21,0,.66-.23.66-.68h.09v1.49h-.09c0-.47-.45-.7-.66-.7h-1.63c-.27,0-.36.11-.36.36v4.75c0,.11.09.2.2.2h.38v.11h-1.61v-.11h.27c.09,0,.2-.09.2-.2v-8.8c0-.11-.09-.2-.2-.2h-1.09c-1.77,0-2.71,1.27-2.73,2.69,0,1.24.72,2.63,2.29,2.63.59,0,.9-.29.97-.41l.11.04c-.07.2-.43.48-1.13.48-1.83,0-2.83-1.33-2.83-2.69,0-1.47,1.09-2.85,3.32-2.85h4.19c.14,0,.65.04.5-.31h.09l.63,1.4h-.09s-.48-.99-1.2-.99h-2.06c-.11,0-.2.09-.2.2Z"/>
    <path class="st2" d="M108.89,110.79h.14v.11h-1.25v-.11h.14c.09,0,.2-.09.2-.2v-7.56c0-.11-.09-.2-.2-.2h-.14v-.11h2.08c1.67,0,2.46.81,2.46,1.83,0,1.09-.77,1.92-2.22,2.01v.05c1.49.79,1.72,4.12,2.62,4.18h.14v.11h-.14c-.84-.05-1.43-1.11-1.85-2.26-.38-1-.54-2.1-1.45-2.08h-.29v-.11h.73c1.09,0,1.81-.84,1.81-1.9,0-.97-.73-1.72-1.81-1.72h-.97c-.11,0-.2.09-.2.2v7.56c0,.11.09.2.2.2Z"/>
    <path class="st2" d="M113.98,103.03v2.31c0,.11.09.2.2.2h1.52c.22,0,.66-.23.66-.68h.09v1.49h-.09c0-.47-.45-.7-.66-.7h-1.52c-.11,0-.2.09-.2.2v4.75c0,.11.09.2.2.2h2.01c.72,0,1.22-1.02,1.22-1.02h.09l-.65,1.43h-.09c.07-.27-.25-.31-.5-.31h-3.19v-.11h.14c.09,0,.2-.09.2-.2v-7.56c0-.11-.11-.2-.2-.2h-.14v-.11h3.03c.14,0,.65.04.5-.31h.09l.63,1.4h-.09s-.48-.99-1.2-.99h-1.85c-.11,0-.2.09-.2.2Z"/>
    <path class="st2" d="M121.85,108.8c0-2.24-3.55-2.56-3.55-4.64,0-1.06.82-1.56,1.79-1.56.66,0,.91.27,1.02.27.05,0,.09-.05.09-.14,0-.04,0-.09-.02-.16h.09l.54,1.49h-.11c-.07-.16-.63-1.36-1.6-1.36-.72,0-1.29.45-1.29,1.25,0,1.92,3.6,2.12,3.6,4.7,0,1.43-1.2,2.51-2.67,2.51s-2.38-.93-2.38-1.92c0-.82.59-1.49,1.52-1.52.57-.02,1.06.32,1.06.81,0,.2-.09.41-.29.48l-.05-.07c.13-.05.22-.16.22-.36,0-.45-.39-.81-.9-.77-.63.04-1.09.72-1.09,1.43,0,.95.77,1.79,1.92,1.81,1.09,0,2.1-.9,2.1-2.24Z"/>
    <path class="st2" d="M124,110.79h.14v.11h-1.25v-.11h.14c.09,0,.2-.09.2-.2v-7.56c0-.11-.09-.2-.2-.2h-.14v-.11h1.25v.11h-.14c-.11,0-.2.09-.2.2v3.64c.02.09.09.16.2.16h3.62c.13,0,.2-.07.2-.2v-3.6c0-.11-.11-.2-.2-.2h-.14v-.11h1.25v.11h-.14c-.11,0-.2.09-.2.2v7.56c0,.11.09.2.2.2h.14v.11h-1.25v-.11h.14c.09,0,.2-.09.2-.2v-3.46c0-.13-.07-.2-.2-.2h-3.62c-.11,0-.2.09-.2.2v3.46c0,.11.09.2.2.2Z"/>
  </g>
</svg>